<?xml version="1.0" encoding="iso-8859-1"?>
<!-- Generator: Adobe Illustrator 19.0.0, SVG Export Plug-In . SVG Version: 6.00 Build 0)  -->
<svg version="1.1" id="Capa_1" xmlns="http://www.w3.org/2000/svg" xmlns:xlink="http://www.w3.org/1999/xlink" x="0px" y="0px"
	 viewBox="0 0 368 368" style="enable-background:new 0 0 368 368;" xml:space="preserve">
<g>
	<g>
		<g>
			<path d="M184,0C82.536,0,0,82.544,0,184s82.536,184,184,184s184-82.544,184-184S285.464,0,184,0z M184,352
				c-92.632,0-168-75.36-168-168S91.368,16,184,16s168,75.36,168,168S276.632,352,184,352z"/>
			<path d="M146.336,189.656c1.56,1.56,3.608,2.344,5.656,2.344c2.048,0,4.096-0.784,5.656-2.344c3.128-3.128,3.128-8.184,0-11.312
				L131.296,152l26.344-26.336c3.128-3.128,3.128-8.184,0-11.312s-8.184-3.128-11.312,0l-26.344,26.344L93.64,114.352
				c-3.128-3.128-8.184-3.128-11.312,0s-3.128,8.184,0,11.312L108.672,152L82.32,178.344c-3.128,3.128-3.128,8.184,0,11.312
				c1.56,1.56,3.608,2.344,5.656,2.344s4.096-0.784,5.656-2.344l26.352-26.352L146.336,189.656z"/>
			<path d="M259.312,152l26.344-26.336c3.128-3.128,3.128-8.184,0-11.312s-8.184-3.128-11.312,0L248,140.696l-26.344-26.344
				c-3.128-3.128-8.184-3.128-11.312,0c-3.128,3.128-3.128,8.184,0,11.312L236.688,152l-26.352,26.344
				c-3.128,3.128-3.128,8.184,0,11.312c1.56,1.56,3.608,2.344,5.656,2.344c2.048,0,4.096-0.784,5.656-2.344L248,163.304
				l26.352,26.352c1.56,1.56,3.608,2.344,5.656,2.344c2.048,0,4.096-0.784,5.656-2.344c3.128-3.128,3.128-8.184,0-11.312
				L259.312,152z"/>
			<path d="M247.992,240h-128c-4.424,0-8,3.584-8,8c0,4.416,3.576,8,8,8h128c4.424,0,8-3.584,8-8
				C255.992,243.584,252.416,240,247.992,240z"/>
		</g>
	</g>
</g>
<g>
</g>
<g>
</g>
<g>
</g>
<g>
</g>
<g>
</g>
<g>
</g>
<g>
</g>
<g>
</g>
<g>
</g>
<g>
</g>
<g>
</g>
<g>
</g>
<g>
</g>
<g>
</g>
<g>
</g>
</svg>
