<?xml version="1.0" encoding="iso-8859-1"?>
<!-- Generator: Adobe Illustrator 19.0.0, SVG Export Plug-In . SVG Version: 6.00 Build 0)  -->
<svg version="1.1" id="Capa_1" xmlns="http://www.w3.org/2000/svg" xmlns:xlink="http://www.w3.org/1999/xlink" x="0px" y="0px"
	 viewBox="0 0 368 368" style="enable-background:new 0 0 368 368;" xml:space="preserve">
<g>
	<g>
		<g>
			<path d="M261.336,226.04c-3.304-2.952-8.352-2.672-11.296,0.624C233.352,245.312,209.28,256,184,256
				c-25.272,0-49.344-10.688-66.04-29.336c-2.944-3.304-8.016-3.568-11.296-0.624c-3.288,2.952-3.568,8-0.624,11.296
				C125.768,259.368,154.176,272,184,272c29.832,0,58.24-12.64,77.96-34.664C264.904,234.04,264.624,228.984,261.336,226.04z"/>
			<path d="M184,0C82.536,0,0,82.544,0,184s82.536,184,184,184s184-82.544,184-184S285.464,0,184,0z M184,352
				c-92.632,0-168-75.36-168-168S91.368,16,184,16s168,75.36,168,168S276.632,352,184,352z"/>
			<path d="M160,152c0-3.032-1.712-5.8-4.424-7.16l-64-32c-3.96-1.984-8.752-0.376-10.736,3.576
				c-1.976,3.952-0.376,8.76,3.576,10.736L134.112,152l-49.688,24.84c-3.952,1.976-5.552,6.784-3.576,10.736
				c1.4,2.808,4.224,4.424,7.16,4.424c1.2,0,2.424-0.272,3.568-0.84l64-32C158.288,157.8,160,155.032,160,152z"/>
			<path d="M283.584,176.84L233.888,152l49.688-24.84c3.952-1.984,5.56-6.784,3.584-10.736c-1.984-3.96-6.784-5.56-10.736-3.576
				l-64,32C209.712,146.2,208,148.968,208,152s1.712,5.8,4.424,7.16l64,32c1.144,0.568,2.368,0.84,3.568,0.84
				c2.936,0,5.76-1.616,7.168-4.424C289.136,183.624,287.536,178.816,283.584,176.84z"/>
		</g>
	</g>
</g>
<g>
</g>
<g>
</g>
<g>
</g>
<g>
</g>
<g>
</g>
<g>
</g>
<g>
</g>
<g>
</g>
<g>
</g>
<g>
</g>
<g>
</g>
<g>
</g>
<g>
</g>
<g>
</g>
<g>
</g>
</svg>
